# Blender v2.93.5 OBJ File: ''
# www.blender.org
mtllib Goal.mtl
o Cube
v 8.000000 -0.995257 -1.000000
v 8.000000 -0.995257 1.000000
v -8.000000 -1.003315 -1.000000
v -8.000000 -1.003315 1.000000
v 0.000000 7.933721 -1.000000
v 0.000000 9.933722 1.000000
v 0.000000 7.933721 1.000000
v 0.000000 9.933722 -1.000000
v -4.000000 4.024297 -1.000000
v -4.000000 6.024297 1.000000
v -4.000000 4.024297 1.000000
v -4.000000 6.024297 -1.000000
v 4.000000 4.024297 1.000000
v 4.000000 6.024297 -1.000000
v 4.000000 4.024297 -1.000000
v 4.000000 6.024297 1.000000
v 2.000000 6.377867 -1.000000
v 2.000000 8.377867 1.000000
v 2.000000 6.377867 1.000000
v 2.000000 8.377867 -1.000000
v 6.000000 1.391589 1.000000
v 6.000000 3.391589 -1.000000
v 6.000000 1.391589 -1.000000
v 6.000000 3.391589 1.000000
v -2.000000 6.377867 1.000000
v -2.000000 8.377867 -1.000000
v -2.000000 6.377867 -1.000000
v -2.000000 8.377867 1.000000
v -6.000000 1.391589 -1.000000
v -6.000000 3.391589 1.000000
v -6.000000 1.391589 1.000000
v -6.000000 3.391589 -1.000000
v -7.000000 -1.000000 -1.000000
v -7.000000 1.000000 1.000000
v -7.000000 -1.000000 1.000000
v -7.000000 1.000000 -1.000000
v -5.000000 4.024297 1.000000
v -5.000000 6.024297 -1.000000
v -5.000000 4.024297 -1.000000
v -5.000000 6.024297 1.000000
v -3.000000 6.377867 -1.000000
v -3.000000 8.377867 1.000000
v -3.000000 6.377867 1.000000
v -3.000000 8.377867 -1.000000
v -1.000000 7.933721 1.000000
v -1.000000 9.933722 -1.000000
v -1.000000 7.933721 -1.000000
v -1.000000 9.933722 1.000000
v 1.000000 7.933721 -1.000000
v 1.000000 9.933722 1.000000
v 1.000000 7.933721 1.000000
v 1.000000 9.933722 -1.000000
v 3.000000 6.377867 1.000000
v 3.000000 8.377867 -1.000000
v 3.000000 6.377867 -1.000000
v 3.000000 8.377867 1.000000
v 5.000000 4.024297 -1.000000
v 5.000000 6.024297 1.000000
v 5.000000 4.024297 1.000000
v 5.000000 6.024297 -1.000000
v 7.000000 -1.000000 1.000000
v 7.000000 1.000000 -1.000000
v 7.000000 -1.000000 -1.000000
v 7.000000 1.000000 1.000000
vt 0.875000 0.500000
vt 0.859375 0.750000
vt 0.859375 0.500000
vt 0.375000 0.984375
vt 0.625000 0.984375
vt 0.375000 1.000000
vt 0.375000 0.500000
vt 0.359375 0.750000
vt 0.359375 0.500000
vt 0.375000 0.484375
vt 0.625000 0.484375
vt 0.625000 0.359375
vt 0.375000 0.375000
vt 0.375000 0.359375
vt 0.250000 0.500000
vt 0.234375 0.750000
vt 0.234375 0.500000
vt 0.625000 0.859375
vt 0.375000 0.875000
vt 0.375000 0.859375
vt 0.750000 0.500000
vt 0.734375 0.750000
vt 0.734375 0.500000
vt 0.187500 0.500000
vt 0.171875 0.750000
vt 0.171875 0.500000
vt 0.625000 0.296875
vt 0.375000 0.312500
vt 0.375000 0.296875
vt 0.375000 0.921875
vt 0.625000 0.937500
vt 0.375000 0.937500
vt 0.812500 0.500000
vt 0.796875 0.750000
vt 0.796875 0.500000
vt 0.687500 0.500000
vt 0.671875 0.750000
vt 0.671875 0.500000
vt 0.625000 0.796875
vt 0.375000 0.812500
vt 0.375000 0.796875
vt 0.375000 0.421875
vt 0.625000 0.437500
vt 0.375000 0.437500
vt 0.312500 0.500000
vt 0.296875 0.750000
vt 0.296875 0.500000
vt 0.281250 0.500000
vt 0.265625 0.750000
vt 0.265625 0.500000
vt 0.375000 0.390625
vt 0.625000 0.406250
vt 0.375000 0.406250
vt 0.718750 0.500000
vt 0.703125 0.750000
vt 0.703125 0.500000
vt 0.625000 0.828125
vt 0.375000 0.843750
vt 0.375000 0.828125
vt 0.625000 0.765625
vt 0.375000 0.781250
vt 0.375000 0.765625
vt 0.656250 0.500000
vt 0.640625 0.750000
vt 0.640625 0.500000
vt 0.375000 0.453125
vt 0.625000 0.468750
vt 0.375000 0.468750
vt 0.343750 0.500000
vt 0.328125 0.750000
vt 0.328125 0.500000
vt 0.781250 0.500000
vt 0.765625 0.750000
vt 0.765625 0.500000
vt 0.375000 0.890625
vt 0.625000 0.906250
vt 0.375000 0.906250
vt 0.218750 0.500000
vt 0.203125 0.750000
vt 0.203125 0.500000
vt 0.625000 0.328125
vt 0.375000 0.343750
vt 0.375000 0.328125
vt 0.625000 0.265625
vt 0.375000 0.281250
vt 0.375000 0.265625
vt 0.156250 0.500000
vt 0.140625 0.750000
vt 0.140625 0.500000
vt 0.375000 0.953125
vt 0.625000 0.968750
vt 0.375000 0.968750
vt 0.843750 0.500000
vt 0.828125 0.750000
vt 0.828125 0.500000
vt 0.125000 0.750000
vt 0.125000 0.500000
vt 0.625000 0.250000
vt 0.843750 0.750000
vt 0.812500 0.750000
vt 0.625000 0.281250
vt 0.156250 0.750000
vt 0.625000 0.312500
vt 0.187500 0.750000
vt 0.781250 0.750000
vt 0.625000 0.875000
vt 0.750000 0.750000
vt 0.218750 0.750000
vt 0.625000 0.343750
vt 0.625000 0.375000
vt 0.250000 0.750000
vt 0.718750 0.750000
vt 0.625000 0.843750
vt 0.625000 0.812500
vt 0.687500 0.750000
vt 0.281250 0.750000
vt 0.312500 0.750000
vt 0.625000 0.781250
vt 0.656250 0.750000
vt 0.625000 0.750000
vt 0.625000 0.500000
vt 0.343750 0.750000
vt 0.875000 0.750000
vt 0.375000 0.750000
vt 0.625000 0.921875
vt 0.625000 0.421875
vt 0.625000 0.390625
vt 0.625000 0.453125
vt 0.625000 0.890625
vt 0.625000 0.953125
vn -0.8947 0.4466 0.0000
vn 0.0000 0.0000 1.0000
vn 0.0047 -1.0000 0.0000
vn 0.0000 0.0000 -1.0000
vn 0.0000 -1.0000 0.0000
vn 0.0000 1.0000 0.0000
vn -0.9204 0.3911 0.0000
vn -0.9204 -0.3911 0.0000
vn -0.8412 -0.5407 0.0000
vn 0.9226 0.3858 0.0000
vn -0.9348 -0.3551 0.0000
vn -0.8412 0.5407 0.0000
vn 0.9226 -0.3858 0.0000
vn -0.9348 0.3551 0.0000
vn 0.0033 -1.0000 0.0000
vn -0.9226 0.3858 0.0000
vn 0.9348 -0.3551 0.0000
vn 0.9204 -0.3911 0.0000
vn 0.8412 -0.5407 0.0000
vn 0.8412 0.5407 0.0000
vn 0.9204 0.3911 0.0000
vn 0.9348 0.3551 0.0000
vn 0.8940 0.4481 0.0000
vn -0.9226 -0.3858 0.0000
usemtl Material
s off
f 3/1/1 34/2/1 36/3/1
f 35/4/2 34/5/2 4/6/2
f 1/7/3 61/8/3 63/9/3
f 63/10/4 62/11/4 1/7/4
f 46/12/4 5/13/4 47/14/4
f 5/15/5 45/16/5 47/17/5
f 50/18/2 7/19/2 51/20/2
f 8/21/6 50/22/6 52/23/6
f 9/24/5 37/25/5 39/26/5
f 38/27/4 9/28/4 39/29/4
f 43/30/2 10/31/2 11/32/2
f 12/33/7 42/34/7 44/35/7
f 14/36/6 58/37/6 60/38/6
f 58/39/2 13/40/2 59/41/2
f 55/42/4 14/43/4 15/44/4
f 15/45/8 53/46/8 55/47/8
f 17/48/9 51/49/9 49/50/9
f 49/51/4 20/52/4 17/53/4
f 20/54/6 56/55/6 54/56/6
f 56/57/2 19/58/2 53/59/2
f 64/60/2 21/61/2 61/62/2
f 22/63/10 64/64/10 62/65/10
f 57/66/4 22/67/4 23/68/4
f 23/69/11 59/70/11 57/71/11
f 26/72/12 48/73/12 46/74/12
f 45/75/2 28/76/2 25/77/2
f 27/78/5 43/79/5 41/80/5
f 44/81/4 27/82/4 41/83/4
f 36/84/4 29/85/4 33/86/4
f 29/87/13 35/88/13 33/89/13
f 37/90/2 30/91/2 31/92/2
f 32/93/14 40/94/14 38/95/14
f 33/89/15 4/96/15 3/97/15
f 3/98/4 36/84/4 33/86/4
f 31/92/2 34/5/2 35/4/2
f 36/3/16 30/99/16 32/93/16
f 38/95/6 10/100/6 12/33/6
f 10/31/2 37/90/2 11/32/2
f 32/101/4 39/29/4 29/85/4
f 39/26/17 31/102/17 29/87/17
f 12/103/4 41/83/4 9/28/4
f 41/80/18 11/104/18 9/24/18
f 44/35/6 28/105/6 26/72/6
f 28/76/2 43/30/2 25/77/2
f 6/106/2 45/75/2 7/19/2
f 46/74/6 6/107/6 8/21/6
f 47/17/19 25/108/19 27/78/19
f 26/109/4 47/14/4 27/82/4
f 8/110/4 49/51/4 5/13/4
f 49/50/5 7/111/5 5/15/5
f 52/23/20 18/112/20 20/54/20
f 18/113/2 51/20/2 19/58/2
f 16/114/2 53/59/2 13/40/2
f 54/56/21 16/115/21 14/36/21
f 55/47/5 19/116/5 17/48/5
f 20/52/4 55/42/4 17/53/4
f 57/71/5 13/117/5 15/45/5
f 14/43/4 57/66/4 15/44/4
f 24/118/2 59/41/2 21/61/2
f 60/38/22 24/119/22 22/63/22
f 62/65/23 2/120/23 1/121/23
f 2/120/2 64/60/2 61/62/2
f 23/68/4 62/11/4 63/10/4
f 63/9/24 21/122/24 23/69/24
f 3/1/1 4/123/1 34/2/1
f 1/7/3 2/124/3 61/8/3
f 46/12/4 8/110/4 5/13/4
f 5/15/5 7/111/5 45/16/5
f 50/18/2 6/106/2 7/19/2
f 8/21/6 6/107/6 50/22/6
f 9/24/5 11/104/5 37/25/5
f 38/27/4 12/103/4 9/28/4
f 43/30/2 42/125/2 10/31/2
f 12/33/7 10/100/7 42/34/7
f 14/36/6 16/115/6 58/37/6
f 58/39/2 16/114/2 13/40/2
f 55/42/4 54/126/4 14/43/4
f 15/45/8 13/117/8 53/46/8
f 17/48/9 19/116/9 51/49/9
f 49/51/4 52/127/4 20/52/4
f 20/54/6 18/112/6 56/55/6
f 56/57/2 18/113/2 19/58/2
f 64/60/2 24/118/2 21/61/2
f 22/63/10 24/119/10 64/64/10
f 57/66/4 60/128/4 22/67/4
f 23/69/11 21/122/11 59/70/11
f 26/72/12 28/105/12 48/73/12
f 45/75/2 48/129/2 28/76/2
f 27/78/5 25/108/5 43/79/5
f 44/81/4 26/109/4 27/82/4
f 36/84/4 32/101/4 29/85/4
f 29/87/13 31/102/13 35/88/13
f 37/90/2 40/130/2 30/91/2
f 32/93/14 30/99/14 40/94/14
f 33/89/15 35/88/15 4/96/15
f 31/92/2 30/91/2 34/5/2
f 36/3/16 34/2/16 30/99/16
f 38/95/6 40/94/6 10/100/6
f 10/31/2 40/130/2 37/90/2
f 32/101/4 38/27/4 39/29/4
f 39/26/17 37/25/17 31/102/17
f 12/103/4 44/81/4 41/83/4
f 41/80/18 43/79/18 11/104/18
f 44/35/6 42/34/6 28/105/6
f 28/76/2 42/125/2 43/30/2
f 6/106/2 48/129/2 45/75/2
f 46/74/6 48/73/6 6/107/6
f 47/17/19 45/16/19 25/108/19
f 26/109/4 46/12/4 47/14/4
f 8/110/4 52/127/4 49/51/4
f 49/50/5 51/49/5 7/111/5
f 52/23/20 50/22/20 18/112/20
f 18/113/2 50/18/2 51/20/2
f 16/114/2 56/57/2 53/59/2
f 54/56/21 56/55/21 16/115/21
f 55/47/5 53/46/5 19/116/5
f 20/52/4 54/126/4 55/42/4
f 57/71/5 59/70/5 13/117/5
f 14/43/4 60/128/4 57/66/4
f 24/118/2 58/39/2 59/41/2
f 60/38/22 58/37/22 24/119/22
f 62/65/23 64/64/23 2/120/23
f 23/68/4 22/67/4 62/11/4
f 63/9/24 61/8/24 21/122/24
