# Blender v2.92.0 OBJ File: ''
# www.blender.org
mtllib Triangle.mtl
o 円錐_円錐.001
v 0.000000 -0.565600 -1.000000
v 0.866025 -0.565600 0.500000
v -0.866025 -0.565600 0.500000
v 0.000000 0.848400 0.000000
vt 0.054580 0.958245
vt 0.054580 0.880377
vt 0.122016 0.841443
vt 0.839844 0.913084
vt 0.873174 0.855354
vt 0.806513 0.855354
vt 0.163288 0.066713
vt 0.101562 0.102350
vt 0.039837 0.066713
vt 0.887491 0.055034
vt 0.920288 0.073970
vt 0.920288 0.111841
vn 0.8165 0.3334 -0.4714
vn 0.0000 -1.0000 -0.0000
vn -0.0000 0.3334 0.9428
vn -0.8165 0.3334 -0.4714
usemtl マテリアル
s off
f 1/1/1 4/2/1 2/3/1
f 1/4/2 2/5/2 3/6/2
f 2/7/3 4/8/3 3/9/3
f 3/10/4 4/11/4 1/12/4
