# Blender v2.93.5 OBJ File: 'Base_Block.blend'
# www.blender.org
mtllib Base_Block.mtl
o Road_Block_Mesh
v -0.543758 -0.000000 1.016904
v 0.442819 -0.000000 1.016904
v -0.160538 0.895457 0.996270
v 0.059600 0.895457 0.996270
v -0.160538 0.895457 -0.996270
v 0.059600 0.895457 -0.996270
v -0.543758 0.000000 -1.016905
v 0.442819 0.000000 -1.016905
v -0.266628 0.289413 -1.016905
v -0.266628 0.289412 1.016904
v 0.165689 0.289412 1.016904
v 0.165689 0.289413 -1.016905
v -0.543758 0.085223 1.016904
v -0.543758 0.085223 -1.016905
v 0.442819 0.085223 -1.016905
v 0.442819 0.085223 1.016904
v -0.160538 0.895457 -0.765452
v 0.059600 0.895457 -0.765452
v -0.160538 0.895457 0.765451
v 0.059600 0.895457 0.765451
v 0.049388 0.987475 0.750164
v -0.150327 0.987475 0.750164
v 0.049388 0.987475 -0.750165
v -0.150327 0.987475 -0.750165
vt 0.490209 0.427217
vt 0.453286 0.495857
vt 0.441275 0.427219
vt 0.478203 0.495857
vt 0.453287 0.521984
vt 0.453269 0.062851
vt 0.490198 0.131489
vt 0.441264 0.131491
vt 0.409905 0.394461
vt 0.521568 0.164247
vt 0.521577 0.394457
vt 0.687514 0.278660
vt 0.761275 0.248037
vt 0.761275 0.276166
vt 0.781058 0.327292
vt 0.854090 0.329783
vt 0.854090 0.357586
vt 0.756458 0.327291
vt 0.746197 0.572362
vt 0.746197 0.327291
vt 0.652289 0.278660
vt 0.662654 0.031097
vt 0.662654 0.278660
vt 0.409896 0.164251
vt 0.409905 0.404108
vt 0.756458 0.572362
vt 0.409896 0.154604
vt 0.521568 0.154600
vt 0.687513 0.031097
vt 0.521577 0.404103
vt 0.781058 0.572362
vt 0.854090 0.542046
vt 0.854090 0.569892
vt 0.761275 0.061720
vt 0.761275 0.033635
vt 0.478186 0.036724
vt 0.453268 0.036725
vt 0.889260 0.359428
vt 0.865182 0.540215
vt 0.865182 0.359428
vt 0.890473 0.348336
vt 0.863968 0.348336
vt 0.772457 0.246188
vt 0.863990 0.551276
vt 0.889260 0.540215
vt 0.890451 0.551276
vt 0.478204 0.521983
vt 0.478187 0.062850
vt 0.652289 0.031097
vt 0.772457 0.063569
vn 0.0000 0.0051 1.0000
vn 0.0000 0.0340 0.9994
vn 0.0000 1.0000 0.0000
vn 0.0000 0.0340 -0.9994
vn -0.0000 0.0051 -1.0000
vn 0.0000 -1.0000 -0.0000
vn 0.9850 0.1724 0.0000
vn -0.9850 0.1724 0.0000
vn -1.0000 0.0000 0.0000
vn 0.0000 0.0000 1.0000
vn 1.0000 0.0000 0.0000
vn 0.0000 0.0000 -1.0000
vn -0.5932 0.8051 0.0000
vn 0.5932 0.8051 0.0000
vn 0.0000 0.1639 0.9865
vn 0.9939 0.1103 0.0000
vn 0.0000 0.1639 -0.9865
vn -0.9939 0.1103 0.0000
usemtl M_Bases_all
s 1
f 11/1/1 3/2/2 10/3/1
f 4/4/3 19/5/3 3/2/3
f 5/6/4 12/7/5 9/8/5
f 1/9/6 8/10/6 2/11/6
f 11/12/7 20/13/7 4/14/7
f 10/15/8 3/16/8 19/17/8
f 13/18/9 7/19/9 1/20/9
f 2/11/10 10/3/1 1/9/10
f 2/21/11 15/22/11 16/23/11
f 9/8/5 8/10/12 7/24/12
f 1/9/10 10/3/1 13/25/10
f 10/15/13 14/26/13 13/18/13
f 9/8/5 7/24/12 14/27/12
f 8/10/12 12/7/5 15/28/12
f 16/23/14 12/29/14 11/12/14
f 11/1/1 2/11/10 16/30/10
f 9/31/8 17/32/8 5/33/8
f 18/34/7 12/29/7 6/35/7
f 18/36/3 5/6/3 17/37/3
f 10/15/8 17/32/8 9/31/8
f 11/12/7 18/34/7 20/13/7
f 21/38/3 24/39/3 22/40/3
f 20/41/15 22/40/15 19/42/15
f 18/34/16 21/43/16 20/13/16
f 17/44/17 23/45/17 18/46/17
f 17/32/18 22/40/18 24/39/18
f 11/1/1 4/4/2 3/2/2
f 4/4/3 20/47/3 19/5/3
f 5/6/4 6/48/4 12/7/5
f 1/9/6 7/24/6 8/10/6
f 13/18/9 14/26/9 7/19/9
f 2/11/10 11/1/1 10/3/1
f 2/21/11 8/49/11 15/22/11
f 9/8/5 12/7/5 8/10/12
f 10/15/13 9/31/13 14/26/13
f 16/23/14 15/22/14 12/29/14
f 18/36/3 6/48/3 5/6/3
f 10/15/8 19/17/8 17/32/8
f 11/12/7 12/29/7 18/34/7
f 21/38/3 23/45/3 24/39/3
f 20/41/15 21/38/15 22/40/15
f 18/34/16 23/50/16 21/43/16
f 17/44/17 24/39/17 23/45/17
f 17/32/18 19/17/18 22/40/18
